<?xml version="1.0" standalone="no"?>
<!DOCTYPE svg PUBLIC "-//W3C//DTD SVG 20010904//EN"
 "http://www.w3.org/TR/2001/REC-SVG-20010904/DTD/svg10.dtd">
<svg version="1.0" xmlns="http://www.w3.org/2000/svg"
 width="512.000000pt" height="512.000000pt" viewBox="0 0 512.000000 512.000000"
 preserveAspectRatio="xMidYMid meet">
<metadata>
Created by potrace 1.11, written by Peter Selinger 2001-2013
</metadata>
<g transform="translate(0.000000,512.000000) scale(0.100000,-0.100000)"
fill="#000000" stroke="none">
<path d="M2720 4966 c14 -18 13 -19 -5 -12 -32 13 -65 14 -58 3 4 -6 1 -7 -7
-2 -19 12 -391 4 -383 -7 2 -5 -8 -8 -24 -9 -15 0 -37 -3 -48 -5 -11 -3 -38
-6 -60 -8 -22 -2 -47 -6 -55 -10 -8 -3 -26 -7 -40 -8 -14 -2 -31 -7 -39 -12
-9 -6 -12 -5 -7 2 4 6 -6 5 -21 -3 -15 -8 -33 -15 -38 -15 -6 0 -63 -17 -127
-38 -85 -28 -121 -36 -129 -28 -9 8 -10 8 -5 -1 7 -13 -19 -31 -51 -36 -10 -1
-25 -7 -33 -12 -34 -22 -109 -53 -114 -47 -3 3 -6 1 -6 -5 0 -6 -16 -18 -36
-28 -29 -14 -38 -14 -52 -3 -15 12 -16 11 -3 -4 11 -15 10 -19 -15 -30 -16 -7
-31 -15 -34 -19 -3 -3 -21 -14 -40 -24 -18 -10 -40 -24 -48 -32 -8 -8 -21 -12
-29 -9 -8 3 -11 2 -8 -4 3 -5 -7 -17 -22 -27 -15 -10 -31 -22 -34 -27 -4 -5
-12 -5 -19 -1 -9 5 -11 4 -6 -3 4 -7 3 -12 -2 -12 -5 0 -20 -10 -34 -22 -43
-40 -91 -73 -100 -70 -5 1 -7 -2 -4 -6 8 -13 -30 -45 -43 -37 -7 4 -8 0 -4
-11 5 -14 3 -16 -11 -11 -9 4 -15 3 -12 -2 6 -10 -84 -97 -97 -93 -4 1 -6 -2
-3 -7 4 -5 -6 -19 -20 -30 -15 -12 -24 -21 -21 -21 4 0 -8 -15 -26 -34 -26
-27 -35 -32 -47 -22 -13 9 -13 9 -2 -5 13 -17 6 -30 -56 -96 -12 -13 -22 -26
-22 -29 0 -8 -124 -188 -135 -196 -5 -4 -6 -8 -2 -8 4 0 -7 -24 -25 -52 -31
-49 -66 -119 -99 -195 -7 -17 -17 -29 -23 -26 -5 3 -6 1 -2 -5 6 -10 -20 -90
-33 -102 -3 -3 -8 -16 -9 -30 -2 -14 -8 -29 -13 -34 -5 -6 -9 -18 -9 -29 0
-10 -4 -15 -10 -12 -5 3 -9 -2 -8 -12 4 -32 -15 -98 -31 -111 -9 -8 -10 -11
-4 -7 18 9 5 -56 -14 -71 -11 -10 -11 -13 -1 -18 10 -4 10 -7 1 -12 -7 -3 -9
-12 -6 -21 5 -12 3 -14 -8 -8 -11 6 -11 5 -3 -4 9 -10 9 -25 -1 -59 -6 -26
-10 -53 -7 -61 3 -10 0 -12 -13 -7 -15 5 -16 4 -6 -8 11 -13 13 -86 1 -86 -3
0 -5 -27 -5 -60 1 -33 -2 -60 -5 -60 -6 0 -3 -237 4 -262 2 -9 -1 -19 -8 -22
-7 -3 -7 -5 2 -5 6 -1 12 -6 12 -12 0 -5 -5 -7 -12 -3 -7 5 -8 3 -2 -7 4 -8 9
-27 10 -44 1 -16 5 -47 8 -68 3 -20 8 -52 11 -70 2 -17 9 -57 15 -87 7 -30 14
-68 18 -85 3 -16 6 -44 6 -62 1 -17 4 -29 8 -26 7 3 10 -19 7 -43 0 -4 4 -10
10 -13 5 -4 12 -18 14 -31 3 -14 10 -38 16 -53 14 -36 14 -50 -1 -41 -7 4 -8
3 -4 -5 4 -6 11 -9 16 -6 16 10 17 -20 1 -40 -15 -19 -15 -19 2 -6 16 13 19
12 24 -7 3 -12 4 -24 3 -28 -1 -4 4 -10 10 -14 7 -4 13 -19 13 -33 1 -14 6
-23 11 -19 5 3 7 -5 4 -16 -4 -12 -2 -20 2 -17 5 3 12 0 16 -6 3 -6 1 -15 -6
-19 -8 -5 -5 -9 9 -13 12 -3 21 -12 21 -20 0 -9 9 -32 21 -51 11 -19 18 -40
14 -46 -4 -6 -3 -10 2 -9 20 3 25 -2 13 -16 -11 -13 -10 -14 5 -9 13 5 16 4
11 -4 -4 -7 -3 -12 1 -12 14 0 41 -54 35 -69 -2 -8 0 -11 5 -8 12 8 76 -91 68
-104 -4 -5 1 -6 9 -3 10 4 16 1 16 -9 0 -8 7 -20 15 -27 11 -9 12 -16 5 -25
-8 -10 -6 -13 7 -11 9 0 22 -9 28 -21 7 -13 15 -20 18 -16 4 3 7 -1 7 -10 0
-9 5 -17 10 -17 6 0 10 -5 10 -10 0 -6 18 -28 40 -49 22 -21 40 -41 40 -44 0
-3 22 -27 50 -53 27 -25 47 -51 43 -57 -3 -5 -2 -7 4 -4 13 8 55 -37 46 -49
-5 -5 -4 -6 1 -2 12 10 68 -31 60 -43 -3 -5 -2 -9 3 -8 18 4 41 -13 36 -27 -4
-10 0 -12 11 -8 10 4 18 0 22 -10 3 -9 10 -13 15 -10 5 3 9 -2 9 -11 0 -9 4
-14 8 -11 5 3 20 -6 35 -20 14 -13 28 -24 31 -24 13 0 74 -48 69 -54 -4 -3 3
-6 15 -6 12 0 22 -4 22 -10 0 -5 7 -10 16 -10 10 0 14 -6 11 -14 -4 -10 0 -12
14 -9 11 3 19 0 19 -6 0 -7 4 -10 9 -6 6 3 14 -2 19 -11 5 -9 11 -15 13 -14
11 4 59 -21 59 -30 0 -6 4 -9 9 -5 5 3 15 0 23 -7 7 -7 20 -14 28 -16 19 -4
100 -43 100 -48 0 -2 -6 -1 -14 2 -8 3 -17 1 -20 -4 -3 -5 6 -8 20 -6 27 3
114 -24 114 -35 0 -4 12 -8 28 -9 15 -1 29 -7 30 -12 2 -6 8 -8 13 -4 5 3 9 1
9 -5 0 -6 7 -7 17 -4 12 5 14 3 8 -7 -5 -8 -4 -11 2 -7 10 6 125 -21 133 -31
3 -4 14 -8 25 -9 19 -2 54 -9 65 -13 11 -4 26 -7 48 -8 16 -2 21 -6 16 -14 -5
-9 -2 -9 9 1 14 11 17 11 18 0 1 -8 1 -18 0 -22 -1 -5 3 -6 9 -2 6 3 8 11 5
16 -4 5 1 9 10 9 9 0 14 -3 11 -8 -2 -4 13 -6 35 -5 22 1 37 -2 34 -7 -3 -5 0
-12 6 -16 7 -4 9 -3 5 4 -3 5 -1 12 5 14 18 6 113 -15 121 -27 5 -6 8 -6 8 3
0 6 9 12 20 12 11 0 20 -4 20 -9 0 -7 26 -8 38 -1 2 2 73 2 93 1 5 -1 7 -7 3
-13 -6 -10 -5 -10 7 -1 18 15 55 10 51 -7 -1 -6 2 -9 7 -5 6 3 8 12 5 19 -4
11 3 12 36 6 22 -4 43 -3 46 1 3 5 14 4 25 -1 10 -6 19 -7 19 -2 0 5 29 8 64
8 35 -1 62 2 59 7 -2 4 8 7 24 6 15 0 42 2 58 6 17 4 44 8 60 10 17 1 37 5 45
8 58 19 90 24 83 14 -5 -9 -3 -9 8 0 8 6 36 17 63 24 40 10 50 10 58 -2 8 -11
9 -10 4 4 -5 16 5 21 41 20 7 -1 11 3 8 7 -3 5 12 11 33 15 22 3 51 13 66 21
16 7 32 11 37 8 5 -3 9 -2 9 3 0 8 49 33 73 37 6 1 36 14 65 29 29 15 58 25
64 21 6 -4 8 -3 5 3 -9 14 17 24 41 17 12 -4 13 -3 4 3 -9 7 -2 15 26 31 22
12 42 19 46 15 3 -3 6 -1 6 6 0 8 6 11 16 7 8 -3 12 -2 9 4 -3 5 4 14 15 20
11 6 20 8 20 4 0 -3 8 4 18 15 9 12 24 23 32 24 8 2 28 15 44 30 16 15 31 25
33 23 3 -3 18 7 33 21 16 14 31 25 34 24 3 0 21 14 39 32 72 68 109 97 117 92
6 -3 7 1 4 9 -6 15 6 21 29 17 5 -1 6 2 3 7 -3 5 26 39 63 75 38 36 66 69 62
73 -3 4 2 4 12 1 11 -4 16 -3 12 4 -9 13 14 41 28 32 6 -3 7 -1 3 5 -3 6 2 19
12 29 29 29 87 104 116 151 19 31 32 42 43 38 12 -5 13 -3 5 6 -8 10 0 29 28
73 22 33 43 65 47 70 4 6 26 47 47 92 22 45 43 80 47 77 4 -2 11 1 15 7 4 8 3
9 -4 5 -7 -4 -12 -1 -12 8 0 9 5 16 10 16 6 0 10 9 10 21 0 13 4 18 12 13 6
-4 8 -3 5 3 -4 6 1 28 9 51 13 31 21 39 35 37 11 -2 17 0 14 6 -4 5 -11 7 -16
4 -10 -7 -12 18 -2 29 4 3 8 12 9 19 2 7 6 26 9 42 3 17 16 39 28 49 16 15 18
18 4 13 -15 -6 -16 -4 -5 16 13 23 14 28 16 65 1 13 5 21 10 19 4 -3 8 16 10
41 1 25 6 49 10 52 4 3 8 25 10 50 2 25 6 47 10 50 4 3 8 28 10 55 3 59 6 82
13 90 3 3 4 25 2 50 -4 40 -2 44 14 39 17 -5 17 -5 0 6 -14 9 -16 15 -6 26 9
11 9 14 0 14 -7 0 -9 5 -6 10 4 6 12 8 18 4 7 -3 5 0 -3 8 -17 14 -15 44 4 67
8 12 8 13 -1 7 -10 -5 -13 13 -14 81 -1 48 -2 120 -3 160 0 39 -4 69 -9 66 -6
-4 -12 47 -8 71 1 5 -3 22 -8 37 -7 21 -7 29 2 29 7 0 6 4 -3 10 -8 5 -11 12
-8 16 4 4 3 15 -3 25 -5 10 -11 31 -14 46 -2 15 -10 56 -18 91 -8 34 -12 62
-8 62 3 0 0 4 -7 8 -7 5 -14 22 -15 38 -1 16 -6 32 -12 36 -6 5 -5 16 4 30 13
22 13 22 -4 8 -17 -14 -18 -13 -13 8 4 12 3 20 -1 18 -4 -3 -13 12 -20 32 -15
45 -29 78 -47 113 -7 14 -11 29 -7 33 3 3 1 6 -5 6 -7 0 -11 3 -10 8 2 10 -25
66 -37 74 -5 4 -6 8 -1 8 5 0 3 7 -4 15 -6 8 -8 20 -4 26 5 8 3 9 -6 4 -10 -6
-12 -4 -7 8 4 10 2 16 -6 14 -7 -1 -11 4 -9 11 1 6 -2 12 -7 12 -5 0 -12 7
-15 16 -4 10 -1 13 7 9 6 -3 2 2 -10 11 -13 9 -23 21 -23 26 0 5 -12 25 -26
44 -15 19 -23 34 -20 34 4 0 -5 12 -19 27 -26 29 -34 50 -13 37 7 -4 8 -3 4 5
-4 6 -11 9 -15 6 -5 -2 -21 14 -37 37 -43 64 -211 259 -234 273 -6 4 -8 11 -4
16 3 5 2 8 -3 7 -12 -4 -73 48 -73 61 0 6 -5 11 -11 11 -16 0 -79 62 -73 72 3
5 2 8 -3 7 -27 -5 -45 2 -40 15 4 9 1 13 -6 10 -7 -2 -25 8 -42 23 -16 16 -42
34 -57 42 -16 8 -28 18 -28 23 0 4 -6 8 -13 8 -7 0 -22 8 -33 18 -10 9 -31 23
-46 31 -15 8 -25 19 -21 24 3 6 1 7 -4 4 -6 -4 -46 14 -89 38 -43 25 -84 45
-91 45 -7 0 -13 5 -13 10 0 6 -4 10 -9 10 -5 0 -30 10 -57 22 -27 12 -52 21
-56 20 -5 -1 -8 3 -8 9 0 5 -4 8 -9 5 -4 -3 -17 1 -27 9 -10 8 -26 15 -35 15
-9 0 -34 8 -55 17 -22 9 -50 18 -63 20 -13 1 -27 6 -30 11 -3 5 -14 8 -23 7
-9 -2 -27 2 -40 9 -13 7 -25 12 -28 13 -3 0 -27 3 -53 7 -38 6 -47 11 -43 23
5 13 4 14 -9 3 -12 -10 -18 -10 -32 1 -9 8 -14 9 -10 2 9 -15 -35 -4 -45 11
-5 7 -8 7 -8 -2 0 -8 -5 -10 -12 -6 -6 4 -23 8 -37 10 -140 13 -168 18 -186
32 -19 16 -19 16 -5 -2z"/>
<path d="M1930 4936 c0 -2 8 -10 18 -17 15 -13 16 -12 3 4 -13 16 -21 21 -21
13z"/>
<path d="M1115 4571 c-3 -5 -2 -12 3 -15 5 -3 9 1 9 9 0 17 -3 19 -12 6z"/>
<path d="M4073 4475 c0 -8 4 -12 9 -9 5 3 6 10 3 15 -9 13 -12 11 -12 -6z"/>
<path d="M439 3753 c-13 -16 -12 -17 4 -4 9 7 17 15 17 17 0 8 -8 3 -21 -13z"/>
<path d="M4895 3141 c-3 -5 -2 -12 3 -15 5 -3 9 1 9 9 0 17 -3 19 -12 6z"/>
<path d="M156 3018 c3 -5 10 -6 15 -3 13 9 11 12 -6 12 -8 0 -12 -4 -9 -9z"/>
<path d="M4950 2966 c0 -2 7 -7 16 -10 8 -3 12 -2 9 4 -6 10 -25 14 -25 6z"/>
<path d="M126 2858 c3 -5 10 -6 15 -3 13 9 11 12 -6 12 -8 0 -12 -4 -9 -9z"/>
<path d="M4935 2111 c-3 -5 -2 -12 3 -15 5 -3 9 1 9 9 0 17 -3 19 -12 6z"/>
<path d="M173 2035 c0 -8 4 -12 9 -9 5 3 6 10 3 15 -9 13 -12 11 -12 -6z"/>
<path d="M215 1861 c-3 -5 -2 -12 3 -15 5 -3 9 1 9 9 0 17 -3 19 -12 6z"/>
<path d="M180 1826 c0 -2 8 -10 18 -17 15 -13 16 -12 3 4 -13 16 -21 21 -21
13z"/>
<path d="M295 1640 c-3 -5 -1 -10 4 -10 6 0 11 5 11 10 0 6 -2 10 -4 10 -3 0
-8 -4 -11 -10z"/>
<path d="M340 1446 c0 -2 8 -10 18 -17 15 -13 16 -12 3 4 -13 16 -21 21 -21
13z"/>
<path d="M4625 1320 c-3 -6 1 -7 9 -4 18 7 21 14 7 14 -6 0 -13 -4 -16 -10z"/>
<path d="M435 1281 c-3 -5 -2 -12 3 -15 5 -3 9 1 9 9 0 17 -3 19 -12 6z"/>
<path d="M735 940 c-3 -5 -1 -10 4 -10 6 0 11 5 11 10 0 6 -2 10 -4 10 -3 0
-8 -4 -11 -10z"/>
<path d="M747 859 c7 -7 15 -10 18 -7 3 3 -2 9 -12 12 -14 6 -15 5 -6 -5z"/>
<path d="M833 845 c0 -8 4 -12 9 -9 5 3 6 10 3 15 -9 13 -12 11 -12 -6z"/>
<path d="M4233 795 c0 -8 4 -12 9 -9 5 3 6 10 3 15 -9 13 -12 11 -12 -6z"/>
<path d="M4190 786 c0 -2 7 -7 16 -10 8 -3 12 -2 9 4 -6 10 -25 14 -25 6z"/>
<path d="M4136 742 c-3 -5 1 -9 9 -9 8 0 12 4 9 9 -3 4 -7 8 -9 8 -2 0 -6 -4
-9 -8z"/>
<path d="M4135 699 c-3 -4 2 -6 10 -5 21 3 28 13 10 13 -9 0 -18 -4 -20 -8z"/>
<path d="M1005 660 c-3 -6 1 -7 9 -4 18 7 21 14 7 14 -6 0 -13 -4 -16 -10z"/>
<path d="M1135 591 c-3 -5 -2 -12 3 -15 5 -3 9 1 9 9 0 17 -3 19 -12 6z"/>
<path d="M3775 460 c3 -5 8 -10 11 -10 2 0 4 5 4 10 0 6 -5 10 -11 10 -5 0 -7
-4 -4 -10z"/>
<path d="M3705 440 c-3 -6 1 -7 9 -4 18 7 21 14 7 14 -6 0 -13 -4 -16 -10z"/>
<path d="M1695 289 c-4 -6 -5 -12 -2 -15 2 -3 7 2 10 11 7 17 1 20 -8 4z"/>
<path d="M1905 200 c-3 -6 1 -7 9 -4 18 7 21 14 7 14 -6 0 -13 -4 -16 -10z"/>
<path d="M1976 193 c-6 -14 -5 -15 5 -6 7 7 10 15 7 18 -3 3 -9 -2 -12 -12z"/>
<path d="M3095 180 c3 -5 8 -10 11 -10 2 0 4 5 4 10 0 6 -5 10 -11 10 -5 0 -7
-4 -4 -10z"/>
<path d="M2233 155 c0 -8 4 -12 9 -9 4 3 8 9 8 15 0 5 -4 9 -8 9 -5 0 -9 -7
-9 -15z"/>
<path d="M2190 146 c0 -2 7 -7 16 -10 8 -3 12 -2 9 4 -6 10 -25 14 -25 6z"/>
<path d="M2476 138 c3 -5 10 -6 15 -3 13 9 11 12 -6 12 -8 0 -12 -4 -9 -9z"/>
<path d="M2770 139 c0 -5 5 -7 10 -4 6 3 10 8 10 11 0 2 -4 4 -10 4 -5 0 -10
-5 -10 -11z"/>
<path d="M2893 135 c0 -8 4 -12 9 -9 5 3 6 10 3 15 -9 13 -12 11 -12 -6z"/>
<path d="M2309 123 c-13 -16 -12 -17 4 -4 16 13 21 21 13 21 -2 0 -10 -8 -17
-17z"/>
<path d="M2530 119 c0 -5 5 -7 10 -4 6 3 10 8 10 11 0 2 -4 4 -10 4 -5 0 -10
-5 -10 -11z"/>
<path d="M2606 122 c-3 -5 1 -9 9 -9 8 0 12 4 9 9 -3 4 -7 8 -9 8 -2 0 -6 -4
-9 -8z"/>
<path d="M2513 85 c0 -8 4 -12 9 -9 5 3 6 10 3 15 -9 13 -12 11 -12 -6z"/>
</g>
</svg>
